<?xml version="1.0" encoding="UTF-8"?>
<svg width="1024px" height="1024px" viewBox="0 0 1024 1024" version="1.1" xmlns="http://www.w3.org/2000/svg" xmlns:xlink="http://www.w3.org/1999/xlink">
    <title>logo</title>
    <g id="logo" stroke="none" stroke-width="1" fill="none" fill-rule="evenodd">
        <path d="M292.472604,376.616433 C289.796338,416.517756 335.099989,452.119784 275.30592,448.086175 C215.511851,444.052567 86.3759506,386.905757 88.0154654,362.824874 C89.6549802,338.743991 177.417243,296.234107 237.211312,300.267716 C297.005381,304.277171 295.172982,336.690957 292.472604,376.616433 Z M777.62432,764.253436 C772.753997,763.480529 768.173,764.615736 764.025992,766.548003 C707.969052,772.151579 686.269592,721.018952 686.269592,721.018952 C675.685077,712.903429 662.61718,672.494886 647.957989,691.67264 L652.466654,725.535627 C656.97532,759.398614 714.430669,803.406005 714.430669,803.406005 L685.136398,841.785667 C677.035266,852.388985 679.060549,867.533131 689.645063,875.648654 C700.229578,883.764177 715.346869,881.735296 723.448001,871.131979 L739.674375,849.877037 L738.734065,855.891219 C736.636451,869.078945 745.605561,881.445456 758.7699,883.546797 C771.93424,885.648138 784.278822,876.663094 786.376436,863.475369 L797.708377,791.909014 C799.75777,778.721288 790.78866,766.354777 777.62432,764.253436 L777.62432,764.253436 Z M626.258528,779.300969 C621.532868,777.900075 616.855429,778.407295 612.467315,779.735729 C556.169271,777.755155 541.485969,724.18304 541.485969,724.18304 C532.08287,714.714929 524.536279,672.905492 507.441927,689.957753 L507.369518,724.11058 C507.297264,758.263407 558.363327,809.589261 558.363327,809.589261 L524.198732,843.693781 C514.747412,853.113585 514.723301,868.402651 524.126401,877.846608 C533.5295,887.314719 548.791454,887.338872 558.218664,877.919068 L577.145416,859.031154 L575.385349,864.876263 C571.551777,877.653381 578.784931,891.106794 591.539391,894.971328 C604.293852,898.81171 617.747518,891.565707 621.581089,878.788589 L642.36435,809.396034 C646.270253,796.594762 639.037099,783.14135 626.258528,779.300969 Z" id="Shape" fill="#FFAC33" fill-rule="nonzero"></path>
        <path d="M921.60328,229.907426 C912.38492,225.822544 903.359111,228.537789 896.331014,235.770434 C895.031297,237.116042 794.640228,387.295532 546.562847,354.568417 C538.379446,353.487125 622.114889,642.144118 623.559019,642 C626.543553,641.663544 697.450312,633.157378 771.341605,580.654628 C839.167554,532.477048 922.590102,436.698576 934.937409,253.912116 C935.611336,243.868112 930.82164,234.016337 921.60328,229.907426 Z" id="Path" fill="#DD2E44" fill-rule="nonzero"></path>
        <path d="M908.471193,575.778971 C903.555979,567.683812 894.255625,562.287039 884.882987,564.431293 C853.729208,571.538649 807.853883,577.513648 775.736337,575.345302 C622.569614,565.033611 550.190688,475.8664 549.443768,475.119525 C542.817867,468.325374 560.671657,753.438797 569.104621,754.017022 C790.626542,768.954518 903.09819,608.81011 907.796556,601.991866 C913.145464,594.137635 913.4105,583.898222 908.471193,575.778971 Z" id="Path" fill="#DD2E44" fill-rule="nonzero"></path>
        <path d="M670.823204,524.711664 C661.837224,657.542331 702.698002,762.432754 569.240452,753.464876 C435.782902,744.521105 323.518702,634.857457 332.504682,502.002683 C341.490662,369.147909 679.833405,391.880998 670.823204,524.711664 Z" id="Path" fill="#DD2E44" fill-rule="nonzero"></path>
        <path d="M637.610698,366.389907 C629.095963,492.848873 543.007889,590.006076 416.758245,581.478853 C290.484479,572.951629 195.013311,463.54711 203.528047,337.088144 C212.042782,210.629178 320.081024,133.111161 446.354789,141.638384 C542.863162,148.136467 645.112349,254.762995 637.610698,366.389907 Z" id="Path" fill="#DD2E44" fill-rule="nonzero"></path>
        <circle id="Oval" fill="#292F33" fill-rule="nonzero" cx="335" cy="283" r="49"></circle>
        <path d="M516.00511,467.605466 C516.00511,467.605466 699.602559,603.575796 814.068228,360.259201 C823.597008,339.988837 854.613667,379.349936 816.450423,460.455468 C778.287179,541.560999 619.738872,615.492459 526.737019,497.433235 C507.12602,472.516575 516.00511,467.605466 516.00511,467.605466 Z" id="Path" fill="#A0041E" fill-rule="nonzero"></path>
        <path d="M448,142.031425 C448,142.031425 597.004631,148.252971 634.029157,130.347656 C671.053683,112.442342 637.273574,202.164868 556.210856,223.156461 C475.148138,244.148054 448,142.031425 448,142.031425 Z" id="Path" fill="#DD2E44" fill-rule="nonzero"></path>
        <path d="M496.019102,206.880363 C496.019102,206.880363 605.129822,210.209331 642.776778,192.340608 C680.423734,174.471885 646.073614,264.109231 563.701202,285.086622 C481.304548,306.064013 496.019102,206.880363 496.019102,206.880363 L496.019102,206.880363 Z" id="Path" fill="#DD2E44" fill-rule="nonzero"></path>
    </g>
</svg>